<?xml version="1.0" encoding="UTF-8"?>
<!DOCTYPE svg PUBLIC "-//W3C//DTD SVG 1.1//EN" "http://www.w3.org/Graphics/SVG/1.1/DTD/svg11.dtd">
<svg xmlns="http://www.w3.org/2000/svg" version="1.1" width="300px" height="300px" style="shape-rendering:geometricPrecision; text-rendering:geometricPrecision; image-rendering:optimizeQuality; fill-rule:evenodd; clip-rule:evenodd" xmlns:xlink="http://www.w3.org/1999/xlink">
<g><path style="opacity:1" fill="#eeea85" d="M 8.5,-0.5 C 102.5,-0.5 196.5,-0.5 290.5,-0.5C 294.5,1.5 297.5,4.5 299.5,8.5C 299.5,10.5 299.5,12.5 299.5,14.5C 297.708,9.21098 294.041,5.71098 288.5,4C 195.666,3.16757 102.999,3.33423 10.5,4.5C 4.91003,5.75819 1.24337,9.09152 -0.5,14.5C -0.5,12.5 -0.5,10.5 -0.5,8.5C 1.5,4.5 4.5,1.5 8.5,-0.5 Z"/></g>
<g><path style="opacity:1" fill="#e4de2e" d="M 10.5,4.5 C 25.8333,4.5 41.1667,4.5 56.5,4.5C 56.9175,5.22158 57.5842,5.72158 58.5,6C 57.8333,6.33333 57.1667,6.66667 56.5,7C 58.5,7.33333 60.5,7.66667 62.5,8C 59.8333,8.66667 59.8333,9.33333 62.5,10C 61.8333,10.3333 61.1667,10.6667 60.5,11C 62.5,11.3333 64.5,11.6667 66.5,12C 63.8333,12.6667 63.8333,13.3333 66.5,14C 65.8333,14.3333 65.1667,14.6667 64.5,15C 66.5,15.3333 68.5,15.6667 70.5,16C 67.8333,16.6667 67.8333,17.3333 70.5,18C 69.8333,18.3333 69.1667,18.6667 68.5,19C 70.5,19.3333 72.5,19.6667 74.5,20C 71.8333,20.6667 71.8333,21.3333 74.5,22C 73.8333,22.3333 73.1667,22.6667 72.5,23C 74.5,23.3333 76.5,23.6667 78.5,24C 75.8333,24.6667 75.8333,25.3333 78.5,26C 77.8333,26.3333 77.1667,26.6667 76.5,27C 78.5,27.3333 80.5,27.6667 82.5,28C 79.8333,28.6667 79.8333,29.3333 82.5,30C 81.8333,30.3333 81.1667,30.6667 80.5,31C 82.5,31.3333 84.5,31.6667 86.5,32C 83.8333,32.6667 83.8333,33.3333 86.5,34C 85.8333,34.3333 85.1667,34.6667 84.5,35C 86.5,35.3333 88.5,35.6667 90.5,36C 87.8333,36.6667 87.8333,37.3333 90.5,38C 89.8333,38.3333 89.1667,38.6667 88.5,39C 90.5,39.3333 92.5,39.6667 94.5,40C 91.8333,40.6667 91.8333,41.3333 94.5,42C 93.8333,42.3333 93.1667,42.6667 92.5,43C 94.5,43.3333 96.5,43.6667 98.5,44C 95.8333,44.6667 95.8333,45.3333 98.5,46C 97.8333,46.3333 97.1667,46.6667 96.5,47C 98.5,47.3333 100.5,47.6667 102.5,48C 99.8333,48.6667 99.8333,49.3333 102.5,50C 101.833,50.3333 101.167,50.6667 100.5,51C 102.5,51.3333 104.5,51.6667 106.5,52C 103.833,52.6667 103.833,53.3333 106.5,54C 105.833,54.3333 105.167,54.6667 104.5,55C 106.5,55.3333 108.5,55.6667 110.5,56C 107.833,56.6667 107.833,57.3333 110.5,58C 109.833,58.3333 109.167,58.6667 108.5,59C 110.5,59.3333 112.5,59.6667 114.5,60C 111.833,60.6667 111.833,61.3333 114.5,62C 113.833,62.3333 113.167,62.6667 112.5,63C 114.5,63.3333 116.5,63.6667 118.5,64C 115.833,64.6667 115.833,65.3333 118.5,66C 117.833,66.3333 117.167,66.6667 116.5,67C 118.5,67.3333 120.5,67.6667 122.5,68C 119.833,68.6667 119.833,69.3333 122.5,70C 121.833,70.3333 121.167,70.6667 120.5,71C 122.5,71.3333 124.5,71.6667 126.5,72C 123.833,72.6667 123.833,73.3333 126.5,74C 125.833,74.3333 125.167,74.6667 124.5,75C 126.5,75.3333 128.5,75.6667 130.5,76C 127.833,76.6667 127.833,77.3333 130.5,78C 129.833,78.3333 129.167,78.6667 128.5,79C 130.5,79.3333 132.5,79.6667 134.5,80C 131.833,80.6667 131.833,81.3333 134.5,82C 133.833,82.3333 133.167,82.6667 132.5,83C 134.5,83.3333 136.5,83.6667 138.5,84C 135.833,84.6667 135.833,85.3333 138.5,86C 137.833,86.3333 137.167,86.6667 136.5,87C 138.5,87.3333 140.5,87.6667 142.5,88C 139.833,88.6667 139.833,89.3333 142.5,90C 141.584,90.2784 140.918,90.7784 140.5,91.5C 133.969,94.6104 128.302,98.9438 123.5,104.5C 115.167,112.5 106.833,120.5 98.5,128.5C 98.0825,127.778 97.4158,127.278 96.5,127C 99.1667,126.333 99.1667,125.667 96.5,125C 97.1667,124.667 97.8333,124.333 98.5,124C 96.5,123.667 94.5,123.333 92.5,123C 95.1667,122.333 95.1667,121.667 92.5,121C 93.1667,120.667 93.8333,120.333 94.5,120C 92.5,119.667 90.5,119.333 88.5,119C 91.1667,118.333 91.1667,117.667 88.5,117C 89.1667,116.667 89.8333,116.333 90.5,116C 88.5,115.667 86.5,115.333 84.5,115C 87.1667,114.333 87.1667,113.667 84.5,113C 85.1667,112.667 85.8333,112.333 86.5,112C 84.5,111.667 82.5,111.333 80.5,111C 83.1667,110.333 83.1667,109.667 80.5,109C 81.1667,108.667 81.8333,108.333 82.5,108C 80.5,107.667 78.5,107.333 76.5,107C 79.1667,106.333 79.1667,105.667 76.5,105C 77.1667,104.667 77.8333,104.333 78.5,104C 76.5,103.667 74.5,103.333 72.5,103C 75.1667,102.333 75.1667,101.667 72.5,101C 73.1667,100.667 73.8333,100.333 74.5,100C 72.5,99.6667 70.5,99.3333 68.5,99C 71.1667,98.3333 71.1667,97.6667 68.5,97C 69.1667,96.6667 69.8333,96.3333 70.5,96C 68.5,95.6667 66.5,95.3333 64.5,95C 67.1667,94.3333 67.1667,93.6667 64.5,93C 65.1667,92.6667 65.8333,92.3333 66.5,92C 64.5,91.6667 62.5,91.3333 60.5,91C 63.1667,90.3333 63.1667,89.6667 60.5,89C 61.1667,88.6667 61.8333,88.3333 62.5,88C 60.5,87.6667 58.5,87.3333 56.5,87C 59.1667,86.3333 59.1667,85.6667 56.5,85C 57.1667,84.6667 57.8333,84.3333 58.5,84C 56.5,83.6667 54.5,83.3333 52.5,83C 55.1667,82.3333 55.1667,81.6667 52.5,81C 53.1667,80.6667 53.8333,80.3333 54.5,80C 52.5,79.6667 50.5,79.3333 48.5,79C 51.1667,78.3333 51.1667,77.6667 48.5,77C 49.1667,76.6667 49.8333,76.3333 50.5,76C 48.5,75.6667 46.5,75.3333 44.5,75C 47.1667,74.3333 47.1667,73.6667 44.5,73C 45.1667,72.6667 45.8333,72.3333 46.5,72C 44.5,71.6667 42.5,71.3333 40.5,71C 43.1667,70.3333 43.1667,69.6667 40.5,69C 41.1667,68.6667 41.8333,68.3333 42.5,68C 40.5,67.6667 38.5,67.3333 36.5,67C 39.1667,66.3333 39.1667,65.6667 36.5,65C 37.1667,64.6667 37.8333,64.3333 38.5,64C 36.5,63.6667 34.5,63.3333 32.5,63C 35.1667,62.3333 35.1667,61.6667 32.5,61C 33.1667,60.6667 33.8333,60.3333 34.5,60C 32.5,59.6667 30.5,59.3333 28.5,59C 31.1667,58.3333 31.1667,57.6667 28.5,57C 29.1667,56.6667 29.8333,56.3333 30.5,56C 28.5,55.6667 26.5,55.3333 24.5,55C 27.1667,54.3333 27.1667,53.6667 24.5,53C 25.1667,52.6667 25.8333,52.3333 26.5,52C 24.5,51.6667 22.5,51.3333 20.5,51C 23.1667,50.3333 23.1667,49.6667 20.5,49C 21.1667,48.6667 21.8333,48.3333 22.5,48C 20.5,47.6667 18.5,47.3333 16.5,47C 19.1667,46.3333 19.1667,45.6667 16.5,45C 17.1667,44.6667 17.8333,44.3333 18.5,44C 16.5,43.6667 14.5,43.3333 12.5,43C 15.1667,42.3333 15.1667,41.6667 12.5,41C 13.1667,40.6667 13.8333,40.3333 14.5,40C 12.5,39.6667 10.5,39.3333 8.5,39C 11.1667,38.3333 11.1667,37.6667 8.5,37C 9.16667,36.6667 9.83333,36.3333 10.5,36C 8.5,35.6667 6.5,35.3333 4.5,35C 7.16667,34.3333 7.16667,33.6667 4.5,33C 5.16667,32.6667 5.83333,32.3333 6.5,32C 4.5,31.6667 2.5,31.3333 0.5,31C 3.16667,30.3333 3.16667,29.6667 0.5,29C 2.93163,27.9125 2.5983,27.4125 -0.5,27.5C -0.5,23.1667 -0.5,18.8333 -0.5,14.5C 1.24337,9.09152 4.91003,5.75819 10.5,4.5 Z"/></g>
<g><path style="opacity:1" fill="#e6e034" d="M 56.5,4.5 C 80.5,4.5 104.5,4.5 128.5,4.5C 128.918,5.22158 129.584,5.72158 130.5,6C 129.833,6.33333 129.167,6.66667 128.5,7C 130.5,7.33333 132.5,7.66667 134.5,8C 131.833,8.66667 131.833,9.33333 134.5,10C 133.833,10.3333 133.167,10.6667 132.5,11C 134.5,11.3333 136.5,11.6667 138.5,12C 135.833,12.6667 135.833,13.3333 138.5,14C 137.833,14.3333 137.167,14.6667 136.5,15C 138.5,15.3333 140.5,15.6667 142.5,16C 139.833,16.6667 139.833,17.3333 142.5,18C 141.833,18.3333 141.167,18.6667 140.5,19C 142.5,19.3333 144.5,19.6667 146.5,20C 143.833,20.6667 143.833,21.3333 146.5,22C 145.833,22.3333 145.167,22.6667 144.5,23C 146.5,23.3333 148.5,23.6667 150.5,24C 147.833,24.6667 147.833,25.3333 150.5,26C 149.833,26.3333 149.167,26.6667 148.5,27C 150.5,27.3333 152.5,27.6667 154.5,28C 151.833,28.6667 151.833,29.3333 154.5,30C 153.833,30.3333 153.167,30.6667 152.5,31C 154.5,31.3333 156.5,31.6667 158.5,32C 155.833,32.6667 155.833,33.3333 158.5,34C 157.833,34.3333 157.167,34.6667 156.5,35C 158.5,35.3333 160.5,35.6667 162.5,36C 159.833,36.6667 159.833,37.3333 162.5,38C 161.833,38.3333 161.167,38.6667 160.5,39C 162.5,39.3333 164.5,39.6667 166.5,40C 163.833,40.6667 163.833,41.3333 166.5,42C 165.833,42.3333 165.167,42.6667 164.5,43C 166.5,43.3333 168.5,43.6667 170.5,44C 167.833,44.6667 167.833,45.3333 170.5,46C 169.833,46.3333 169.167,46.6667 168.5,47C 170.5,47.3333 172.5,47.6667 174.5,48C 171.833,48.6667 171.833,49.3333 174.5,50C 173.833,50.3333 173.167,50.6667 172.5,51C 174.5,51.3333 176.5,51.6667 178.5,52C 175.833,52.6667 175.833,53.3333 178.5,54C 177.833,54.3333 177.167,54.6667 176.5,55C 178.5,55.3333 180.5,55.6667 182.5,56C 179.833,56.6667 179.833,57.3333 182.5,58C 181.833,58.3333 181.167,58.6667 180.5,59C 182.5,59.3333 184.5,59.6667 186.5,60C 183.833,60.6667 183.833,61.3333 186.5,62C 185.833,62.3333 185.167,62.6667 184.5,63C 186.5,63.3333 188.5,63.6667 190.5,64C 187.833,64.6667 187.833,65.3333 190.5,66C 189.833,66.3333 189.167,66.6667 188.5,67C 190.5,67.3333 192.5,67.6667 194.5,68C 191.833,68.6667 191.833,69.3333 194.5,70C 193.833,70.3333 193.167,70.6667 192.5,71C 194.5,71.3333 196.5,71.6667 198.5,72C 195.833,72.6667 195.833,73.3333 198.5,74C 197.833,74.3333 197.167,74.6667 196.5,75C 198.5,75.3333 200.5,75.6667 202.5,76C 199.833,76.6667 199.833,77.3333 202.5,78C 201.833,78.3333 201.167,78.6667 200.5,79C 202.5,79.3333 204.5,79.6667 206.5,80C 203.833,80.6667 203.833,81.3333 206.5,82C 205.833,82.3333 205.167,82.6667 204.5,83C 206.5,83.3333 208.5,83.6667 210.5,84C 207.833,84.6667 207.833,85.3333 210.5,86C 209.833,86.3333 209.167,86.6667 208.5,87C 210.5,87.3333 212.5,87.6667 214.5,88C 211.833,88.6667 211.833,89.3333 214.5,90C 213.833,90.3333 213.167,90.6667 212.5,91C 214.5,91.3333 216.5,91.6667 218.5,92C 215.833,92.6667 215.833,93.3333 218.5,94C 217.833,94.3333 217.167,94.6667 216.5,95C 218.5,95.3333 220.5,95.6667 222.5,96C 219.833,96.6667 219.833,97.3333 222.5,98C 221.833,98.3333 221.167,98.6667 220.5,99C 222.5,99.3333 224.5,99.6667 226.5,100C 223.833,100.667 223.833,101.333 226.5,102C 225.833,102.333 225.167,102.667 224.5,103C 226.5,103.333 228.5,103.667 230.5,104C 227.833,104.667 227.833,105.333 230.5,106C 229.833,106.333 229.167,106.667 228.5,107C 230.5,107.333 232.5,107.667 234.5,108C 231.833,108.667 231.833,109.333 234.5,110C 233.833,110.333 233.167,110.667 232.5,111C 234.5,111.333 236.5,111.667 238.5,112C 235.833,112.667 235.833,113.333 238.5,114C 237.833,114.333 237.167,114.667 236.5,115C 238.5,115.333 240.5,115.667 242.5,116C 239.833,116.667 239.833,117.333 242.5,118C 241.833,118.333 241.167,118.667 240.5,119C 242.5,119.333 244.5,119.667 246.5,120C 243.833,120.667 243.833,121.333 246.5,122C 245.833,122.333 245.167,122.667 244.5,123C 246.5,123.333 248.5,123.667 250.5,124C 247.833,124.667 247.833,125.333 250.5,126C 249.833,126.333 249.167,126.667 248.5,127C 250.5,127.333 252.5,127.667 254.5,128C 251.833,128.667 251.833,129.333 254.5,130C 253.833,130.333 253.167,130.667 252.5,131C 254.5,131.333 256.5,131.667 258.5,132C 255.833,132.667 255.833,133.333 258.5,134C 257.833,134.333 257.167,134.667 256.5,135C 258.5,135.333 260.5,135.667 262.5,136C 259.833,136.667 259.833,137.333 262.5,138C 261.833,138.333 261.167,138.667 260.5,139C 262.5,139.333 264.5,139.667 266.5,140C 263.833,140.667 263.833,141.333 266.5,142C 265.833,142.333 265.167,142.667 264.5,143C 266.5,143.333 268.5,143.667 270.5,144C 267.833,144.667 267.833,145.333 270.5,146C 269.833,146.333 269.167,146.667 268.5,147C 270.5,147.333 272.5,147.667 274.5,148C 271.833,148.667 271.833,149.333 274.5,150C 273.833,150.333 273.167,150.667 272.5,151C 274.5,151.333 276.5,151.667 278.5,152C 275.833,152.667 275.833,153.333 278.5,154C 277.833,154.333 277.167,154.667 276.5,155C 278.5,155.333 280.5,155.667 282.5,156C 279.833,156.667 279.833,157.333 282.5,158C 281.833,158.333 281.167,158.667 280.5,159C 282.5,159.333 284.5,159.667 286.5,160C 283.833,160.667 283.833,161.333 286.5,162C 285.833,162.333 285.167,162.667 284.5,163C 286.5,163.333 288.5,163.667 290.5,164C 287.833,164.667 287.833,165.333 290.5,166C 289.833,166.333 289.167,166.667 288.5,167C 290.5,167.333 292.5,167.667 294.5,168C 291.833,168.667 291.833,169.333 294.5,170C 293.833,170.333 293.167,170.667 292.5,171C 294.5,171.333 296.5,171.667 298.5,172C 295.833,172.667 295.833,173.333 298.5,174C 296.068,175.087 296.402,175.587 299.5,175.5C 299.5,199.5 299.5,223.5 299.5,247.5C 296.402,247.587 296.068,247.087 298.5,246C 295.833,245.333 295.833,244.667 298.5,244C 296.5,243.667 294.5,243.333 292.5,243C 295.167,242.333 295.167,241.667 292.5,241C 293.167,240.667 293.833,240.333 294.5,240C 292.5,239.667 290.5,239.333 288.5,239C 291.167,238.333 291.167,237.667 288.5,237C 289.167,236.667 289.833,236.333 290.5,236C 288.5,235.667 286.5,235.333 284.5,235C 287.167,234.333 287.167,233.667 284.5,233C 285.167,232.667 285.833,232.333 286.5,232C 284.5,231.667 282.5,231.333 280.5,231C 283.167,230.333 283.167,229.667 280.5,229C 281.167,228.667 281.833,228.333 282.5,228C 280.5,227.667 278.5,227.333 276.5,227C 279.167,226.333 279.167,225.667 276.5,225C 277.167,224.667 277.833,224.333 278.5,224C 276.5,223.667 274.5,223.333 272.5,223C 275.167,222.333 275.167,221.667 272.5,221C 273.167,220.667 273.833,220.333 274.5,220C 272.5,219.667 270.5,219.333 268.5,219C 271.167,218.333 271.167,217.667 268.5,217C 269.167,216.667 269.833,216.333 270.5,216C 268.5,215.667 266.5,215.333 264.5,215C 267.167,214.333 267.167,213.667 264.5,213C 265.167,212.667 265.833,212.333 266.5,212C 264.5,211.667 262.5,211.333 260.5,211C 263.167,210.333 263.167,209.667 260.5,209C 261.167,208.667 261.833,208.333 262.5,208C 260.5,207.667 258.5,207.333 256.5,207C 259.167,206.333 259.167,205.667 256.5,205C 257.167,204.667 257.833,204.333 258.5,204C 256.5,203.667 254.5,203.333 252.5,203C 255.167,202.333 255.167,201.667 252.5,201C 253.167,200.667 253.833,200.333 254.5,200C 252.5,199.667 250.5,199.333 248.5,199C 251.167,198.333 251.167,197.667 248.5,197C 249.167,196.667 249.833,196.333 250.5,196C 248.5,195.667 246.5,195.333 244.5,195C 247.167,194.333 247.167,193.667 244.5,193C 245.167,192.667 245.833,192.333 246.5,192C 244.5,191.667 242.5,191.333 240.5,191C 243.167,190.333 243.167,189.667 240.5,189C 241.167,188.667 241.833,188.333 242.5,188C 240.5,187.667 238.5,187.333 236.5,187C 239.167,186.333 239.167,185.667 236.5,185C 237.167,184.667 237.833,184.333 238.5,184C 236.5,183.667 234.5,183.333 232.5,183C 235.167,182.333 235.167,181.667 232.5,181C 233.167,180.667 233.833,180.333 234.5,180C 232.5,179.667 230.5,179.333 228.5,179C 231.167,178.333 231.167,177.667 228.5,177C 229.167,176.667 229.833,176.333 230.5,176C 228.288,175.211 226.288,175.378 224.5,176.5C 213.416,158.966 197.75,153.132 177.5,159C 174.351,160.662 171.351,162.495 168.5,164.5C 166.901,164.768 165.568,164.434 164.5,163.5C 165.716,161.549 167.382,160.049 169.5,159C 166.166,157.916 162.832,157.082 159.5,156.5C 159.5,156.167 159.5,155.833 159.5,155.5C 171.135,151.269 177.802,142.936 179.5,130.5C 179.5,129.5 179.5,128.5 179.5,127.5C 181.174,120.942 180.508,114.609 177.5,108.5C 169.394,93.9507 157.061,88.284 140.5,91.5C 140.918,90.7784 141.584,90.2784 142.5,90C 139.833,89.3333 139.833,88.6667 142.5,88C 140.5,87.6667 138.5,87.3333 136.5,87C 137.167,86.6667 137.833,86.3333 138.5,86C 135.833,85.3333 135.833,84.6667 138.5,84C 136.5,83.6667 134.5,83.3333 132.5,83C 133.167,82.6667 133.833,82.3333 134.5,82C 131.833,81.3333 131.833,80.6667 134.5,80C 132.5,79.6667 130.5,79.3333 128.5,79C 129.167,78.6667 129.833,78.3333 130.5,78C 127.833,77.3333 127.833,76.6667 130.5,76C 128.5,75.6667 126.5,75.3333 124.5,75C 125.167,74.6667 125.833,74.3333 126.5,74C 123.833,73.3333 123.833,72.6667 126.5,72C 124.5,71.6667 122.5,71.3333 120.5,71C 121.167,70.6667 121.833,70.3333 122.5,70C 119.833,69.3333 119.833,68.6667 122.5,68C 120.5,67.6667 118.5,67.3333 116.5,67C 117.167,66.6667 117.833,66.3333 118.5,66C 115.833,65.3333 115.833,64.6667 118.5,64C 116.5,63.6667 114.5,63.3333 112.5,63C 113.167,62.6667 113.833,62.3333 114.5,62C 111.833,61.3333 111.833,60.6667 114.5,60C 112.5,59.6667 110.5,59.3333 108.5,59C 109.167,58.6667 109.833,58.3333 110.5,58C 107.833,57.3333 107.833,56.6667 110.5,56C 108.5,55.6667 106.5,55.3333 104.5,55C 105.167,54.6667 105.833,54.3333 106.5,54C 103.833,53.3333 103.833,52.6667 106.5,52C 104.5,51.6667 102.5,51.3333 100.5,51C 101.167,50.6667 101.833,50.3333 102.5,50C 99.8333,49.3333 99.8333,48.6667 102.5,48C 100.5,47.6667 98.5,47.3333 96.5,47C 97.1667,46.6667 97.8333,46.3333 98.5,46C 95.8333,45.3333 95.8333,44.6667 98.5,44C 96.5,43.6667 94.5,43.3333 92.5,43C 93.1667,42.6667 93.8333,42.3333 94.5,42C 91.8333,41.3333 91.8333,40.6667 94.5,40C 92.5,39.6667 90.5,39.3333 88.5,39C 89.1667,38.6667 89.8333,38.3333 90.5,38C 87.8333,37.3333 87.8333,36.6667 90.5,36C 88.5,35.6667 86.5,35.3333 84.5,35C 85.1667,34.6667 85.8333,34.3333 86.5,34C 83.8333,33.3333 83.8333,32.6667 86.5,32C 84.5,31.6667 82.5,31.3333 80.5,31C 81.1667,30.6667 81.8333,30.3333 82.5,30C 79.8333,29.3333 79.8333,28.6667 82.5,28C 80.5,27.6667 78.5,27.3333 76.5,27C 77.1667,26.6667 77.8333,26.3333 78.5,26C 75.8333,25.3333 75.8333,24.6667 78.5,24C 76.5,23.6667 74.5,23.3333 72.5,23C 73.1667,22.6667 73.8333,22.3333 74.5,22C 71.8333,21.3333 71.8333,20.6667 74.5,20C 72.5,19.6667 70.5,19.3333 68.5,19C 69.1667,18.6667 69.8333,18.3333 70.5,18C 67.8333,17.3333 67.8333,16.6667 70.5,16C 68.5,15.6667 66.5,15.3333 64.5,15C 65.1667,14.6667 65.8333,14.3333 66.5,14C 63.8333,13.3333 63.8333,12.6667 66.5,12C 64.5,11.6667 62.5,11.3333 60.5,11C 61.1667,10.6667 61.8333,10.3333 62.5,10C 59.8333,9.33333 59.8333,8.66667 62.5,8C 60.5,7.66667 58.5,7.33333 56.5,7C 57.1667,6.66667 57.8333,6.33333 58.5,6C 57.5842,5.72158 56.9175,5.22158 56.5,4.5 Z"/></g>
<g><path style="opacity:1" fill="#e8e23b" d="M 128.5,4.5 C 147.888,4.05017 167.221,4.55017 186.5,6C 185.833,6.33333 185.167,6.66667 184.5,7C 185.833,7.33333 187.167,7.66667 188.5,8C 187.833,8.33333 187.167,8.66667 186.5,9C 187.833,9.33333 189.167,9.66667 190.5,10C 189.833,10.3333 189.167,10.6667 188.5,11C 189.833,11.3333 191.167,11.6667 192.5,12C 191.833,12.3333 191.167,12.6667 190.5,13C 191.833,13.3333 193.167,13.6667 194.5,14C 193.833,14.3333 193.167,14.6667 192.5,15C 193.833,15.3333 195.167,15.6667 196.5,16C 195.833,16.3333 195.167,16.6667 194.5,17C 195.833,17.3333 197.167,17.6667 198.5,18C 197.833,18.3333 197.167,18.6667 196.5,19C 197.833,19.3333 199.167,19.6667 200.5,20C 199.833,20.3333 199.167,20.6667 198.5,21C 199.833,21.3333 201.167,21.6667 202.5,22C 201.833,22.3333 201.167,22.6667 200.5,23C 201.833,23.3333 203.167,23.6667 204.5,24C 203.833,24.3333 203.167,24.6667 202.5,25C 203.833,25.3333 205.167,25.6667 206.5,26C 205.833,26.3333 205.167,26.6667 204.5,27C 205.833,27.3333 207.167,27.6667 208.5,28C 207.833,28.3333 207.167,28.6667 206.5,29C 207.833,29.3333 209.167,29.6667 210.5,30C 209.833,30.3333 209.167,30.6667 208.5,31C 209.833,31.3333 211.167,31.6667 212.5,32C 211.833,32.3333 211.167,32.6667 210.5,33C 211.833,33.3333 213.167,33.6667 214.5,34C 213.833,34.3333 213.167,34.6667 212.5,35C 213.833,35.3333 215.167,35.6667 216.5,36C 215.833,36.3333 215.167,36.6667 214.5,37C 215.833,37.3333 217.167,37.6667 218.5,38C 217.833,38.3333 217.167,38.6667 216.5,39C 217.833,39.3333 219.167,39.6667 220.5,40C 219.833,40.3333 219.167,40.6667 218.5,41C 219.833,41.3333 221.167,41.6667 222.5,42C 221.833,42.3333 221.167,42.6667 220.5,43C 221.833,43.3333 223.167,43.6667 224.5,44C 223.833,44.3333 223.167,44.6667 222.5,45C 223.833,45.3333 225.167,45.6667 226.5,46C 225.833,46.3333 225.167,46.6667 224.5,47C 225.833,47.3333 227.167,47.6667 228.5,48C 227.833,48.3333 227.167,48.6667 226.5,49C 227.833,49.3333 229.167,49.6667 230.5,50C 229.833,50.3333 229.167,50.6667 228.5,51C 229.833,51.3333 231.167,51.6667 232.5,52C 231.833,52.3333 231.167,52.6667 230.5,53C 231.833,53.3333 233.167,53.6667 234.5,54C 233.833,54.3333 233.167,54.6667 232.5,55C 233.833,55.3333 235.167,55.6667 236.5,56C 235.833,56.3333 235.167,56.6667 234.5,57C 235.833,57.3333 237.167,57.6667 238.5,58C 237.833,58.3333 237.167,58.6667 236.5,59C 237.833,59.3333 239.167,59.6667 240.5,60C 239.833,60.3333 239.167,60.6667 238.5,61C 239.833,61.3333 241.167,61.6667 242.5,62C 241.833,62.3333 241.167,62.6667 240.5,63C 241.833,63.3333 243.167,63.6667 244.5,64C 243.833,64.3333 243.167,64.6667 242.5,65C 243.833,65.3333 245.167,65.6667 246.5,66C 245.833,66.3333 245.167,66.6667 244.5,67C 245.833,67.3333 247.167,67.6667 248.5,68C 247.833,68.3333 247.167,68.6667 246.5,69C 247.833,69.3333 249.167,69.6667 250.5,70C 249.833,70.3333 249.167,70.6667 248.5,71C 249.833,71.3333 251.167,71.6667 252.5,72C 251.833,72.3333 251.167,72.6667 250.5,73C 251.833,73.3333 253.167,73.6667 254.5,74C 253.833,74.3333 253.167,74.6667 252.5,75C 253.833,75.3333 255.167,75.6667 256.5,76C 255.833,76.3333 255.167,76.6667 254.5,77C 255.833,77.3333 257.167,77.6667 258.5,78C 257.833,78.3333 257.167,78.6667 256.5,79C 257.833,79.3333 259.167,79.6667 260.5,80C 259.833,80.3333 259.167,80.6667 258.5,81C 259.833,81.3333 261.167,81.6667 262.5,82C 261.833,82.3333 261.167,82.6667 260.5,83C 261.833,83.3333 263.167,83.6667 264.5,84C 263.833,84.3333 263.167,84.6667 262.5,85C 263.833,85.3333 265.167,85.6667 266.5,86C 265.833,86.3333 265.167,86.6667 264.5,87C 265.833,87.3333 267.167,87.6667 268.5,88C 267.833,88.3333 267.167,88.6667 266.5,89C 267.833,89.3333 269.167,89.6667 270.5,90C 269.833,90.3333 269.167,90.6667 268.5,91C 269.833,91.3333 271.167,91.6667 272.5,92C 271.833,92.3333 271.167,92.6667 270.5,93C 271.833,93.3333 273.167,93.6667 274.5,94C 273.833,94.3333 273.167,94.6667 272.5,95C 273.833,95.3333 275.167,95.6667 276.5,96C 275.833,96.3333 275.167,96.6667 274.5,97C 275.833,97.3333 277.167,97.6667 278.5,98C 277.833,98.3333 277.167,98.6667 276.5,99C 277.833,99.3333 279.167,99.6667 280.5,100C 279.833,100.333 279.167,100.667 278.5,101C 279.833,101.333 281.167,101.667 282.5,102C 281.833,102.333 281.167,102.667 280.5,103C 281.833,103.333 283.167,103.667 284.5,104C 283.833,104.333 283.167,104.667 282.5,105C 283.833,105.333 285.167,105.667 286.5,106C 285.833,106.333 285.167,106.667 284.5,107C 285.833,107.333 287.167,107.667 288.5,108C 287.833,108.333 287.167,108.667 286.5,109C 287.833,109.333 289.167,109.667 290.5,110C 289.833,110.333 289.167,110.667 288.5,111C 289.833,111.333 291.167,111.667 292.5,112C 291.833,112.333 291.167,112.667 290.5,113C 291.833,113.333 293.167,113.667 294.5,114C 293.833,114.333 293.167,114.667 292.5,115C 293.833,115.333 295.167,115.667 296.5,116C 295.833,116.333 295.167,116.667 294.5,117C 296.954,117.59 298.621,118.424 299.5,119.5C 299.5,138.167 299.5,156.833 299.5,175.5C 296.402,175.587 296.068,175.087 298.5,174C 295.833,173.333 295.833,172.667 298.5,172C 296.5,171.667 294.5,171.333 292.5,171C 293.167,170.667 293.833,170.333 294.5,170C 291.833,169.333 291.833,168.667 294.5,168C 292.5,167.667 290.5,167.333 288.5,167C 289.167,166.667 289.833,166.333 290.5,166C 287.833,165.333 287.833,164.667 290.5,164C 288.5,163.667 286.5,163.333 284.5,163C 285.167,162.667 285.833,162.333 286.5,162C 283.833,161.333 283.833,160.667 286.5,160C 284.5,159.667 282.5,159.333 280.5,159C 281.167,158.667 281.833,158.333 282.5,158C 279.833,157.333 279.833,156.667 282.5,156C 280.5,155.667 278.5,155.333 276.5,155C 277.167,154.667 277.833,154.333 278.5,154C 275.833,153.333 275.833,152.667 278.5,152C 276.5,151.667 274.5,151.333 272.5,151C 273.167,150.667 273.833,150.333 274.5,150C 271.833,149.333 271.833,148.667 274.5,148C 272.5,147.667 270.5,147.333 268.5,147C 269.167,146.667 269.833,146.333 270.5,146C 267.833,145.333 267.833,144.667 270.5,144C 268.5,143.667 266.5,143.333 264.5,143C 265.167,142.667 265.833,142.333 266.5,142C 263.833,141.333 263.833,140.667 266.5,140C 264.5,139.667 262.5,139.333 260.5,139C 261.167,138.667 261.833,138.333 262.5,138C 259.833,137.333 259.833,136.667 262.5,136C 260.5,135.667 258.5,135.333 256.5,135C 257.167,134.667 257.833,134.333 258.5,134C 255.833,133.333 255.833,132.667 258.5,132C 256.5,131.667 254.5,131.333 252.5,131C 253.167,130.667 253.833,130.333 254.5,130C 251.833,129.333 251.833,128.667 254.5,128C 252.5,127.667 250.5,127.333 248.5,127C 249.167,126.667 249.833,126.333 250.5,126C 247.833,125.333 247.833,124.667 250.5,124C 248.5,123.667 246.5,123.333 244.5,123C 245.167,122.667 245.833,122.333 246.5,122C 243.833,121.333 243.833,120.667 246.5,120C 244.5,119.667 242.5,119.333 240.5,119C 241.167,118.667 241.833,118.333 242.5,118C 239.833,117.333 239.833,116.667 242.5,116C 240.5,115.667 238.5,115.333 236.5,115C 237.167,114.667 237.833,114.333 238.5,114C 235.833,113.333 235.833,112.667 238.5,112C 236.5,111.667 234.5,111.333 232.5,111C 233.167,110.667 233.833,110.333 234.5,110C 231.833,109.333 231.833,108.667 234.5,108C 232.5,107.667 230.5,107.333 228.5,107C 229.167,106.667 229.833,106.333 230.5,106C 227.833,105.333 227.833,104.667 230.5,104C 228.5,103.667 226.5,103.333 224.5,103C 225.167,102.667 225.833,102.333 226.5,102C 223.833,101.333 223.833,100.667 226.5,100C 224.5,99.6667 222.5,99.3333 220.5,99C 221.167,98.6667 221.833,98.3333 222.5,98C 219.833,97.3333 219.833,96.6667 222.5,96C 220.5,95.6667 218.5,95.3333 216.5,95C 217.167,94.6667 217.833,94.3333 218.5,94C 215.833,93.3333 215.833,92.6667 218.5,92C 216.5,91.6667 214.5,91.3333 212.5,91C 213.167,90.6667 213.833,90.3333 214.5,90C 211.833,89.3333 211.833,88.6667 214.5,88C 212.5,87.6667 210.5,87.3333 208.5,87C 209.167,86.6667 209.833,86.3333 210.5,86C 207.833,85.3333 207.833,84.6667 210.5,84C 208.5,83.6667 206.5,83.3333 204.5,83C 205.167,82.6667 205.833,82.3333 206.5,82C 203.833,81.3333 203.833,80.6667 206.5,80C 204.5,79.6667 202.5,79.3333 200.5,79C 201.167,78.6667 201.833,78.3333 202.5,78C 199.833,77.3333 199.833,76.6667 202.5,76C 200.5,75.6667 198.5,75.3333 196.5,75C 197.167,74.6667 197.833,74.3333 198.5,74C 195.833,73.3333 195.833,72.6667 198.5,72C 196.5,71.6667 194.5,71.3333 192.5,71C 193.167,70.6667 193.833,70.3333 194.5,70C 191.833,69.3333 191.833,68.6667 194.5,68C 192.5,67.6667 190.5,67.3333 188.5,67C 189.167,66.6667 189.833,66.3333 190.5,66C 187.833,65.3333 187.833,64.6667 190.5,64C 188.5,63.6667 186.5,63.3333 184.5,63C 185.167,62.6667 185.833,62.3333 186.5,62C 183.833,61.3333 183.833,60.6667 186.5,60C 184.5,59.6667 182.5,59.3333 180.5,59C 181.167,58.6667 181.833,58.3333 182.5,58C 179.833,57.3333 179.833,56.6667 182.5,56C 180.5,55.6667 178.5,55.3333 176.5,55C 177.167,54.6667 177.833,54.3333 178.5,54C 175.833,53.3333 175.833,52.6667 178.5,52C 176.5,51.6667 174.5,51.3333 172.5,51C 173.167,50.6667 173.833,50.3333 174.5,50C 171.833,49.3333 171.833,48.6667 174.5,48C 172.5,47.6667 170.5,47.3333 168.5,47C 169.167,46.6667 169.833,46.3333 170.5,46C 167.833,45.3333 167.833,44.6667 170.5,44C 168.5,43.6667 166.5,43.3333 164.5,43C 165.167,42.6667 165.833,42.3333 166.5,42C 163.833,41.3333 163.833,40.6667 166.5,40C 164.5,39.6667 162.5,39.3333 160.5,39C 161.167,38.6667 161.833,38.3333 162.5,38C 159.833,37.3333 159.833,36.6667 162.5,36C 160.5,35.6667 158.5,35.3333 156.5,35C 157.167,34.6667 157.833,34.3333 158.5,34C 155.833,33.3333 155.833,32.6667 158.5,32C 156.5,31.6667 154.5,31.3333 152.5,31C 153.167,30.6667 153.833,30.3333 154.5,30C 151.833,29.3333 151.833,28.6667 154.5,28C 152.5,27.6667 150.5,27.3333 148.5,27C 149.167,26.6667 149.833,26.3333 150.5,26C 147.833,25.3333 147.833,24.6667 150.5,24C 148.5,23.6667 146.5,23.3333 144.5,23C 145.167,22.6667 145.833,22.3333 146.5,22C 143.833,21.3333 143.833,20.6667 146.5,20C 144.5,19.6667 142.5,19.3333 140.5,19C 141.167,18.6667 141.833,18.3333 142.5,18C 139.833,17.3333 139.833,16.6667 142.5,16C 140.5,15.6667 138.5,15.3333 136.5,15C 137.167,14.6667 137.833,14.3333 138.5,14C 135.833,13.3333 135.833,12.6667 138.5,12C 136.5,11.6667 134.5,11.3333 132.5,11C 133.167,10.6667 133.833,10.3333 134.5,10C 131.833,9.33333 131.833,8.66667 134.5,8C 132.5,7.66667 130.5,7.33333 128.5,7C 129.167,6.66667 129.833,6.33333 130.5,6C 129.584,5.72158 128.918,5.22158 128.5,4.5 Z"/></g>
<g><path style="opacity:1" fill="#ece644" d="M 10.5,4.5 C 102.999,3.33423 195.666,3.16757 288.5,4C 294.041,5.71098 297.708,9.21098 299.5,14.5C 299.5,49.5 299.5,84.5 299.5,119.5C 298.621,118.424 296.954,117.59 294.5,117C 295.167,116.667 295.833,116.333 296.5,116C 295.167,115.667 293.833,115.333 292.5,115C 293.167,114.667 293.833,114.333 294.5,114C 293.167,113.667 291.833,113.333 290.5,113C 291.167,112.667 291.833,112.333 292.5,112C 291.167,111.667 289.833,111.333 288.5,111C 289.167,110.667 289.833,110.333 290.5,110C 289.167,109.667 287.833,109.333 286.5,109C 287.167,108.667 287.833,108.333 288.5,108C 287.167,107.667 285.833,107.333 284.5,107C 285.167,106.667 285.833,106.333 286.5,106C 285.167,105.667 283.833,105.333 282.5,105C 283.167,104.667 283.833,104.333 284.5,104C 283.167,103.667 281.833,103.333 280.5,103C 281.167,102.667 281.833,102.333 282.5,102C 281.167,101.667 279.833,101.333 278.5,101C 279.167,100.667 279.833,100.333 280.5,100C 279.167,99.6667 277.833,99.3333 276.5,99C 277.167,98.6667 277.833,98.3333 278.5,98C 277.167,97.6667 275.833,97.3333 274.5,97C 275.167,96.6667 275.833,96.3333 276.5,96C 275.167,95.6667 273.833,95.3333 272.5,95C 273.167,94.6667 273.833,94.3333 274.5,94C 273.167,93.6667 271.833,93.3333 270.5,93C 271.167,92.6667 271.833,92.3333 272.5,92C 271.167,91.6667 269.833,91.3333 268.5,91C 269.167,90.6667 269.833,90.3333 270.5,90C 269.167,89.6667 267.833,89.3333 266.5,89C 267.167,88.6667 267.833,88.3333 268.5,88C 267.167,87.6667 265.833,87.3333 264.5,87C 265.167,86.6667 265.833,86.3333 266.5,86C 265.167,85.6667 263.833,85.3333 262.5,85C 263.167,84.6667 263.833,84.3333 264.5,84C 263.167,83.6667 261.833,83.3333 260.5,83C 261.167,82.6667 261.833,82.3333 262.5,82C 261.167,81.6667 259.833,81.3333 258.5,81C 259.167,80.6667 259.833,80.3333 260.5,80C 259.167,79.6667 257.833,79.3333 256.5,79C 257.167,78.6667 257.833,78.3333 258.5,78C 257.167,77.6667 255.833,77.3333 254.5,77C 255.167,76.6667 255.833,76.3333 256.5,76C 255.167,75.6667 253.833,75.3333 252.5,75C 253.167,74.6667 253.833,74.3333 254.5,74C 253.167,73.6667 251.833,73.3333 250.5,73C 251.167,72.6667 251.833,72.3333 252.5,72C 251.167,71.6667 249.833,71.3333 248.5,71C 249.167,70.6667 249.833,70.3333 250.5,70C 249.167,69.6667 247.833,69.3333 246.5,69C 247.167,68.6667 247.833,68.3333 248.5,68C 247.167,67.6667 245.833,67.3333 244.5,67C 245.167,66.6667 245.833,66.3333 246.5,66C 245.167,65.6667 243.833,65.3333 242.5,65C 243.167,64.6667 243.833,64.3333 244.5,64C 243.167,63.6667 241.833,63.3333 240.5,63C 241.167,62.6667 241.833,62.3333 242.5,62C 241.167,61.6667 239.833,61.3333 238.5,61C 239.167,60.6667 239.833,60.3333 240.5,60C 239.167,59.6667 237.833,59.3333 236.5,59C 237.167,58.6667 237.833,58.3333 238.5,58C 237.167,57.6667 235.833,57.3333 234.5,57C 235.167,56.6667 235.833,56.3333 236.5,56C 235.167,55.6667 233.833,55.3333 232.5,55C 233.167,54.6667 233.833,54.3333 234.5,54C 233.167,53.6667 231.833,53.3333 230.5,53C 231.167,52.6667 231.833,52.3333 232.5,52C 231.167,51.6667 229.833,51.3333 228.5,51C 229.167,50.6667 229.833,50.3333 230.5,50C 229.167,49.6667 227.833,49.3333 226.5,49C 227.167,48.6667 227.833,48.3333 228.5,48C 227.167,47.6667 225.833,47.3333 224.5,47C 225.167,46.6667 225.833,46.3333 226.5,46C 225.167,45.6667 223.833,45.3333 222.5,45C 223.167,44.6667 223.833,44.3333 224.5,44C 223.167,43.6667 221.833,43.3333 220.5,43C 221.167,42.6667 221.833,42.3333 222.5,42C 221.167,41.6667 219.833,41.3333 218.5,41C 219.167,40.6667 219.833,40.3333 220.5,40C 219.167,39.6667 217.833,39.3333 216.5,39C 217.167,38.6667 217.833,38.3333 218.5,38C 217.167,37.6667 215.833,37.3333 214.5,37C 215.167,36.6667 215.833,36.3333 216.5,36C 215.167,35.6667 213.833,35.3333 212.5,35C 213.167,34.6667 213.833,34.3333 214.5,34C 213.167,33.6667 211.833,33.3333 210.5,33C 211.167,32.6667 211.833,32.3333 212.5,32C 211.167,31.6667 209.833,31.3333 208.5,31C 209.167,30.6667 209.833,30.3333 210.5,30C 209.167,29.6667 207.833,29.3333 206.5,29C 207.167,28.6667 207.833,28.3333 208.5,28C 207.167,27.6667 205.833,27.3333 204.5,27C 205.167,26.6667 205.833,26.3333 206.5,26C 205.167,25.6667 203.833,25.3333 202.5,25C 203.167,24.6667 203.833,24.3333 204.5,24C 203.167,23.6667 201.833,23.3333 200.5,23C 201.167,22.6667 201.833,22.3333 202.5,22C 201.167,21.6667 199.833,21.3333 198.5,21C 199.167,20.6667 199.833,20.3333 200.5,20C 199.167,19.6667 197.833,19.3333 196.5,19C 197.167,18.6667 197.833,18.3333 198.5,18C 197.167,17.6667 195.833,17.3333 194.5,17C 195.167,16.6667 195.833,16.3333 196.5,16C 195.167,15.6667 193.833,15.3333 192.5,15C 193.167,14.6667 193.833,14.3333 194.5,14C 193.167,13.6667 191.833,13.3333 190.5,13C 191.167,12.6667 191.833,12.3333 192.5,12C 191.167,11.6667 189.833,11.3333 188.5,11C 189.167,10.6667 189.833,10.3333 190.5,10C 189.167,9.66667 187.833,9.33333 186.5,9C 187.167,8.66667 187.833,8.33333 188.5,8C 187.167,7.66667 185.833,7.33333 184.5,7C 185.167,6.66667 185.833,6.33333 186.5,6C 167.221,4.55017 147.888,4.05017 128.5,4.5C 104.5,4.5 80.5,4.5 56.5,4.5C 41.1667,4.5 25.8333,4.5 10.5,4.5 Z"/></g>
<g><path style="opacity:1" fill="#e5df27" d="M -0.5,27.5 C 2.5983,27.4125 2.93163,27.9125 0.5,29C 3.16667,29.6667 3.16667,30.3333 0.5,31C 2.5,31.3333 4.5,31.6667 6.5,32C 5.83333,32.3333 5.16667,32.6667 4.5,33C 7.16667,33.6667 7.16667,34.3333 4.5,35C 6.5,35.3333 8.5,35.6667 10.5,36C 9.83333,36.3333 9.16667,36.6667 8.5,37C 11.1667,37.6667 11.1667,38.3333 8.5,39C 10.5,39.3333 12.5,39.6667 14.5,40C 13.8333,40.3333 13.1667,40.6667 12.5,41C 15.1667,41.6667 15.1667,42.3333 12.5,43C 14.5,43.3333 16.5,43.6667 18.5,44C 17.8333,44.3333 17.1667,44.6667 16.5,45C 19.1667,45.6667 19.1667,46.3333 16.5,47C 18.5,47.3333 20.5,47.6667 22.5,48C 21.8333,48.3333 21.1667,48.6667 20.5,49C 23.1667,49.6667 23.1667,50.3333 20.5,51C 22.5,51.3333 24.5,51.6667 26.5,52C 25.8333,52.3333 25.1667,52.6667 24.5,53C 27.1667,53.6667 27.1667,54.3333 24.5,55C 26.5,55.3333 28.5,55.6667 30.5,56C 29.8333,56.3333 29.1667,56.6667 28.5,57C 31.1667,57.6667 31.1667,58.3333 28.5,59C 30.5,59.3333 32.5,59.6667 34.5,60C 33.8333,60.3333 33.1667,60.6667 32.5,61C 35.1667,61.6667 35.1667,62.3333 32.5,63C 34.5,63.3333 36.5,63.6667 38.5,64C 37.8333,64.3333 37.1667,64.6667 36.5,65C 39.1667,65.6667 39.1667,66.3333 36.5,67C 38.5,67.3333 40.5,67.6667 42.5,68C 41.8333,68.3333 41.1667,68.6667 40.5,69C 43.1667,69.6667 43.1667,70.3333 40.5,71C 42.5,71.3333 44.5,71.6667 46.5,72C 45.8333,72.3333 45.1667,72.6667 44.5,73C 47.1667,73.6667 47.1667,74.3333 44.5,75C 46.5,75.3333 48.5,75.6667 50.5,76C 49.8333,76.3333 49.1667,76.6667 48.5,77C 51.1667,77.6667 51.1667,78.3333 48.5,79C 50.5,79.3333 52.5,79.6667 54.5,80C 53.8333,80.3333 53.1667,80.6667 52.5,81C 55.1667,81.6667 55.1667,82.3333 52.5,83C 54.5,83.3333 56.5,83.6667 58.5,84C 57.8333,84.3333 57.1667,84.6667 56.5,85C 59.1667,85.6667 59.1667,86.3333 56.5,87C 58.5,87.3333 60.5,87.6667 62.5,88C 61.8333,88.3333 61.1667,88.6667 60.5,89C 63.1667,89.6667 63.1667,90.3333 60.5,91C 62.5,91.3333 64.5,91.6667 66.5,92C 65.8333,92.3333 65.1667,92.6667 64.5,93C 67.1667,93.6667 67.1667,94.3333 64.5,95C 66.5,95.3333 68.5,95.6667 70.5,96C 69.8333,96.3333 69.1667,96.6667 68.5,97C 71.1667,97.6667 71.1667,98.3333 68.5,99C 70.5,99.3333 72.5,99.6667 74.5,100C 73.8333,100.333 73.1667,100.667 72.5,101C 75.1667,101.667 75.1667,102.333 72.5,103C 74.5,103.333 76.5,103.667 78.5,104C 77.8333,104.333 77.1667,104.667 76.5,105C 79.1667,105.667 79.1667,106.333 76.5,107C 78.5,107.333 80.5,107.667 82.5,108C 81.8333,108.333 81.1667,108.667 80.5,109C 83.1667,109.667 83.1667,110.333 80.5,111C 82.5,111.333 84.5,111.667 86.5,112C 85.8333,112.333 85.1667,112.667 84.5,113C 87.1667,113.667 87.1667,114.333 84.5,115C 86.5,115.333 88.5,115.667 90.5,116C 89.8333,116.333 89.1667,116.667 88.5,117C 91.1667,117.667 91.1667,118.333 88.5,119C 90.5,119.333 92.5,119.667 94.5,120C 93.8333,120.333 93.1667,120.667 92.5,121C 95.1667,121.667 95.1667,122.333 92.5,123C 94.5,123.333 96.5,123.667 98.5,124C 97.8333,124.333 97.1667,124.667 96.5,125C 99.1667,125.667 99.1667,126.333 96.5,127C 97.4158,127.278 98.0825,127.778 98.5,128.5C 78.5,148.833 58.5,169.167 38.5,189.5C 25.5,202.167 12.5,214.833 -0.5,227.5C -0.5,160.833 -0.5,94.1667 -0.5,27.5 Z"/></g>
<g><path style="opacity:1" fill="#e4e1a7" d="M 177.5,108.5 C 180.508,114.609 181.174,120.942 179.5,127.5C 179.768,121.044 179.101,114.711 177.5,108.5 Z"/></g>
<g><path style="opacity:1" fill="#e6e5d6" d="M 177.5,108.5 C 179.101,114.711 179.768,121.044 179.5,127.5C 179.5,128.5 179.5,129.5 179.5,130.5C 177.264,133.967 175.264,137.634 173.5,141.5C 161.743,153.271 148.41,155.438 133.5,148C 129.639,145.304 126.306,142.137 123.5,138.5C 122.528,135.563 121.195,132.897 119.5,130.5C 118.613,124.855 118.446,119.188 119,113.5C 120.038,110.185 121.538,107.185 123.5,104.5C 128.302,98.9438 133.969,94.6104 140.5,91.5C 157.061,88.284 169.394,93.9507 177.5,108.5 Z"/></g>
<g><path style="opacity:1" fill="#b8b34c" d="M 174.5,131.5 C 174.5,131.167 174.5,130.833 174.5,130.5C 178.4,113.798 172.4,102.298 156.5,96C 140.818,93.7551 129.985,99.9217 124,114.5C 123.324,119.871 123.491,125.204 124.5,130.5C 124.5,130.833 124.5,131.167 124.5,131.5C 118.48,114.457 123.813,102.29 140.5,95C 157.907,90.7846 169.74,96.9512 176,113.5C 176.667,118.833 176.667,124.167 176,129.5C 175.722,130.416 175.222,131.082 174.5,131.5 Z"/></g>
<g><path style="opacity:1" fill="#f0f0ef" d="M 174.5,130.5 C 164.669,147.875 151.003,151.708 133.5,142C 129.877,138.551 126.877,134.717 124.5,130.5C 123.491,125.204 123.324,119.871 124,114.5C 129.985,99.9217 140.818,93.7551 156.5,96C 172.4,102.298 178.4,113.798 174.5,130.5 Z"/></g>
<g><path style="opacity:1" fill="#827e38" d="M 124.5,130.5 C 126.877,134.717 129.877,138.551 133.5,142C 151.003,151.708 164.669,147.875 174.5,130.5C 174.5,130.833 174.5,131.167 174.5,131.5C 167.228,147.213 155.228,152.38 138.5,147C 131.49,143.829 126.823,138.662 124.5,131.5C 124.5,131.167 124.5,130.833 124.5,130.5 Z"/></g>
<g><path style="opacity:1" fill="#9c9829" d="M 179.5,130.5 C 177.802,142.936 171.135,151.269 159.5,155.5C 159.5,154.833 159.167,154.5 158.5,154.5C 165.023,151.98 170.023,147.647 173.5,141.5C 175.264,137.634 177.264,133.967 179.5,130.5 Z"/></g>
<g><path style="opacity:1" fill="#b0aa28" d="M 123.5,138.5 C 126.306,142.137 129.639,145.304 133.5,148C 148.41,155.438 161.743,153.271 173.5,141.5C 170.023,147.647 165.023,151.98 158.5,154.5C 142.644,158.069 130.977,152.735 123.5,138.5 Z"/></g>
<g><path style="opacity:1" fill="#77731d" d="M 119.5,130.5 C 121.195,132.897 122.528,135.563 123.5,138.5C 130.977,152.735 142.644,158.069 158.5,154.5C 159.167,154.5 159.5,154.833 159.5,155.5C 159.5,155.833 159.5,156.167 159.5,156.5C 152.5,156.5 145.5,156.5 138.5,156.5C 127.789,151.094 121.455,142.427 119.5,130.5 Z"/></g>
<g><path style="opacity:1" fill="#f0f0ee" d="M 138.5,156.5 C 145.5,156.5 152.5,156.5 159.5,156.5C 162.832,157.082 166.166,157.916 169.5,159C 167.382,160.049 165.716,161.549 164.5,163.5C 157.908,169.346 153.908,176.679 152.5,185.5C 151.928,192.739 152.928,199.739 155.5,206.5C 155.253,207.713 154.586,208.38 153.5,208.5C 135.164,208.667 116.83,208.5 98.5,208C 95.6424,206.306 93.309,204.139 91.5,201.5C 91.5,200.833 91.5,200.167 91.5,199.5C 91.431,194.384 92.0976,189.384 93.5,184.5C 99.6005,172.242 109.267,164.075 122.5,160C 127.784,158.512 133.117,157.345 138.5,156.5 Z"/></g>
<g><path style="opacity:1" fill="#f1f0ef" d="M 224.5,176.5 C 227.539,184.63 228.205,192.964 226.5,201.5C 223.036,209.3 218.036,215.967 211.5,221.5C 198.111,228.296 184.777,228.13 171.5,221C 165.083,216.093 160.416,209.926 157.5,202.5C 155.6,193.553 156.266,184.886 159.5,176.5C 161.794,171.886 164.794,167.886 168.5,164.5C 171.351,162.495 174.351,160.662 177.5,159C 197.75,153.132 213.416,158.966 224.5,176.5 Z"/></g>
<g><path style="opacity:1" fill="#98933c" d="M 164.5,163.5 C 165.568,164.434 166.901,164.768 168.5,164.5C 164.794,167.886 161.794,171.886 159.5,176.5C 158.504,176.414 157.671,176.748 157,177.5C 155.603,180.354 154.103,183.02 152.5,185.5C 153.908,176.679 157.908,169.346 164.5,163.5 Z"/></g>
<g><path style="opacity:1" fill="#b3ad20" d="M 123.5,104.5 C 121.538,107.185 120.038,110.185 119,113.5C 118.446,119.188 118.613,124.855 119.5,130.5C 121.455,142.427 127.789,151.094 138.5,156.5C 133.117,157.345 127.784,158.512 122.5,160C 109.267,164.075 99.6005,172.242 93.5,184.5C 90.6387,189.261 89.972,194.261 91.5,199.5C 91.5,200.167 91.5,200.833 91.5,201.5C 91.0539,206.567 93.0539,210.401 97.5,213C 116.509,213.833 135.509,213.666 154.5,212.5C 153.754,211.264 153.421,209.93 153.5,208.5C 154.586,208.38 155.253,207.713 155.5,206.5C 152.928,199.739 151.928,192.739 152.5,185.5C 154.103,183.02 155.603,180.354 157,177.5C 157.671,176.748 158.504,176.414 159.5,176.5C 156.266,184.886 155.6,193.553 157.5,202.5C 163.055,225.63 177.722,235.296 201.5,231.5C 181.5,252.167 161.167,272.5 140.5,292.5C 105.832,258.832 71.8317,224.498 38.5,189.5C 58.5,169.167 78.5,148.833 98.5,128.5C 106.833,120.5 115.167,112.5 123.5,104.5 Z"/></g>
<g><path style="opacity:1" fill="#e4de2e" d="M 299.5,247.5 C 299.5,259.833 299.5,272.167 299.5,284.5C 297.757,289.908 294.09,293.242 288.5,294.5C 281.167,294.5 273.833,294.5 266.5,294.5C 266.082,293.778 265.416,293.278 264.5,293C 265.167,292.667 265.833,292.333 266.5,292C 264.5,291.667 262.5,291.333 260.5,291C 263.167,290.333 263.167,289.667 260.5,289C 261.167,288.667 261.833,288.333 262.5,288C 260.5,287.667 258.5,287.333 256.5,287C 259.167,286.333 259.167,285.667 256.5,285C 257.167,284.667 257.833,284.333 258.5,284C 256.5,283.667 254.5,283.333 252.5,283C 255.167,282.333 255.167,281.667 252.5,281C 253.167,280.667 253.833,280.333 254.5,280C 252.5,279.667 250.5,279.333 248.5,279C 251.167,278.333 251.167,277.667 248.5,277C 249.167,276.667 249.833,276.333 250.5,276C 248.5,275.667 246.5,275.333 244.5,275C 247.167,274.333 247.167,273.667 244.5,273C 245.167,272.667 245.833,272.333 246.5,272C 244.5,271.667 242.5,271.333 240.5,271C 243.167,270.333 243.167,269.667 240.5,269C 241.167,268.667 241.833,268.333 242.5,268C 240.5,267.667 238.5,267.333 236.5,267C 239.167,266.333 239.167,265.667 236.5,265C 237.167,264.667 237.833,264.333 238.5,264C 236.5,263.667 234.5,263.333 232.5,263C 235.167,262.333 235.167,261.667 232.5,261C 233.167,260.667 233.833,260.333 234.5,260C 232.5,259.667 230.5,259.333 228.5,259C 231.167,258.333 231.167,257.667 228.5,257C 229.167,256.667 229.833,256.333 230.5,256C 228.5,255.667 226.5,255.333 224.5,255C 227.167,254.333 227.167,253.667 224.5,253C 225.167,252.667 225.833,252.333 226.5,252C 224.5,251.667 222.5,251.333 220.5,251C 223.167,250.333 223.167,249.667 220.5,249C 221.167,248.667 221.833,248.333 222.5,248C 220.5,247.667 218.5,247.333 216.5,247C 219.167,246.333 219.167,245.667 216.5,245C 217.167,244.667 217.833,244.333 218.5,244C 216.5,243.667 214.5,243.333 212.5,243C 215.167,242.333 215.167,241.667 212.5,241C 213.167,240.667 213.833,240.333 214.5,240C 212.5,239.667 210.5,239.333 208.5,239C 211.167,238.333 211.167,237.667 208.5,237C 209.167,236.667 209.833,236.333 210.5,236C 208.5,235.667 206.5,235.333 204.5,235C 207.167,234.333 207.167,233.667 204.5,233C 205.167,232.667 205.833,232.333 206.5,232C 205.207,231.51 203.873,231.343 202.5,231.5C 203.167,230.833 203.833,230.167 204.5,229.5C 217.075,224.378 224.409,215.044 226.5,201.5C 228.205,192.964 227.539,184.63 224.5,176.5C 226.288,175.378 228.288,175.211 230.5,176C 229.833,176.333 229.167,176.667 228.5,177C 231.167,177.667 231.167,178.333 228.5,179C 230.5,179.333 232.5,179.667 234.5,180C 233.833,180.333 233.167,180.667 232.5,181C 235.167,181.667 235.167,182.333 232.5,183C 234.5,183.333 236.5,183.667 238.5,184C 237.833,184.333 237.167,184.667 236.5,185C 239.167,185.667 239.167,186.333 236.5,187C 238.5,187.333 240.5,187.667 242.5,188C 241.833,188.333 241.167,188.667 240.5,189C 243.167,189.667 243.167,190.333 240.5,191C 242.5,191.333 244.5,191.667 246.5,192C 245.833,192.333 245.167,192.667 244.5,193C 247.167,193.667 247.167,194.333 244.5,195C 246.5,195.333 248.5,195.667 250.5,196C 249.833,196.333 249.167,196.667 248.5,197C 251.167,197.667 251.167,198.333 248.5,199C 250.5,199.333 252.5,199.667 254.5,200C 253.833,200.333 253.167,200.667 252.5,201C 255.167,201.667 255.167,202.333 252.5,203C 254.5,203.333 256.5,203.667 258.5,204C 257.833,204.333 257.167,204.667 256.5,205C 259.167,205.667 259.167,206.333 256.5,207C 258.5,207.333 260.5,207.667 262.5,208C 261.833,208.333 261.167,208.667 260.5,209C 263.167,209.667 263.167,210.333 260.5,211C 262.5,211.333 264.5,211.667 266.5,212C 265.833,212.333 265.167,212.667 264.5,213C 267.167,213.667 267.167,214.333 264.5,215C 266.5,215.333 268.5,215.667 270.5,216C 269.833,216.333 269.167,216.667 268.5,217C 271.167,217.667 271.167,218.333 268.5,219C 270.5,219.333 272.5,219.667 274.5,220C 273.833,220.333 273.167,220.667 272.5,221C 275.167,221.667 275.167,222.333 272.5,223C 274.5,223.333 276.5,223.667 278.5,224C 277.833,224.333 277.167,224.667 276.5,225C 279.167,225.667 279.167,226.333 276.5,227C 278.5,227.333 280.5,227.667 282.5,228C 281.833,228.333 281.167,228.667 280.5,229C 283.167,229.667 283.167,230.333 280.5,231C 282.5,231.333 284.5,231.667 286.5,232C 285.833,232.333 285.167,232.667 284.5,233C 287.167,233.667 287.167,234.333 284.5,235C 286.5,235.333 288.5,235.667 290.5,236C 289.833,236.333 289.167,236.667 288.5,237C 291.167,237.667 291.167,238.333 288.5,239C 290.5,239.333 292.5,239.667 294.5,240C 293.833,240.333 293.167,240.667 292.5,241C 295.167,241.667 295.167,242.333 292.5,243C 294.5,243.333 296.5,243.667 298.5,244C 295.833,244.667 295.833,245.333 298.5,246C 296.068,247.087 296.402,247.587 299.5,247.5 Z"/></g>
<g><path style="opacity:1" fill="#8c883b" d="M 193.5,181.5 C 192.5,181.5 191.5,181.5 190.5,181.5C 190.806,184.385 190.473,187.052 189.5,189.5C 189.334,185.154 189.501,180.821 190,176.5C 191,175.167 192,175.167 193,176.5C 193.494,178.134 193.66,179.801 193.5,181.5 Z"/></g>
<g><path style="opacity:1" fill="#b7b135" d="M 193.5,181.5 C 193.194,184.385 193.527,187.052 194.5,189.5C 194.5,190.833 194.5,192.167 194.5,193.5C 193.515,197.634 193.182,201.968 193.5,206.5C 192.432,207.434 191.099,207.768 189.5,207.5C 189.5,202.833 189.5,198.167 189.5,193.5C 189.5,192.167 189.5,190.833 189.5,189.5C 190.473,187.052 190.806,184.385 190.5,181.5C 191.5,181.5 192.5,181.5 193.5,181.5 Z"/></g>
<g><path style="opacity:1" fill="#767222" d="M 189.5,189.5 C 189.5,190.833 189.5,192.167 189.5,193.5C 184.833,193.5 180.167,193.5 175.5,193.5C 175.33,192.178 175.663,191.011 176.5,190C 180.821,189.501 185.154,189.334 189.5,189.5 Z"/></g>
<g><path style="opacity:1" fill="#747020" d="M 194.5,189.5 C 198.514,189.334 202.514,189.501 206.5,190C 207.791,191.292 207.791,192.458 206.5,193.5C 202.5,193.5 198.5,193.5 194.5,193.5C 194.5,192.167 194.5,190.833 194.5,189.5 Z"/></g>
<g><path style="opacity:1" fill="#dbd8a4" d="M 93.5,184.5 C 92.0976,189.384 91.431,194.384 91.5,199.5C 89.972,194.261 90.6387,189.261 93.5,184.5 Z"/></g>
<g><path style="opacity:1" fill="#cecca4" d="M 194.5,193.5 C 198.5,193.5 202.5,193.5 206.5,193.5C 202.702,194.483 198.702,194.817 194.5,194.5C 194.817,198.702 194.483,202.702 193.5,206.5C 193.182,201.968 193.515,197.634 194.5,193.5 Z"/></g>
<g><path style="opacity:1" fill="#b5af1c" d="M 38.5,189.5 C 71.8317,224.498 105.832,258.832 140.5,292.5C 140.389,293.117 140.056,293.617 139.5,294C 181.832,294.5 224.165,294.667 266.5,294.5C 273.833,294.5 281.167,294.5 288.5,294.5C 196,295.267 103.334,295.267 10.5,294.5C 4.91003,293.242 1.24337,289.908 -0.5,284.5C -0.5,265.5 -0.5,246.5 -0.5,227.5C 12.5,214.833 25.5,202.167 38.5,189.5 Z"/></g>
<g><path style="opacity:1" fill="#6f6b17" d="M 91.5,201.5 C 93.309,204.139 95.6424,206.306 98.5,208C 116.83,208.5 135.164,208.667 153.5,208.5C 153.421,209.93 153.754,211.264 154.5,212.5C 135.509,213.666 116.509,213.833 97.5,213C 93.0539,210.401 91.0539,206.567 91.5,201.5 Z"/></g>
<g><path style="opacity:1" fill="#97932b" d="M 226.5,201.5 C 224.409,215.044 217.075,224.378 204.5,229.5C 206.833,226.833 209.167,224.167 211.5,221.5C 218.036,215.967 223.036,209.3 226.5,201.5 Z"/></g>
<g><path style="opacity:1" fill="#767221" d="M 157.5,202.5 C 160.416,209.926 165.083,216.093 171.5,221C 184.777,228.13 198.111,228.296 211.5,221.5C 209.167,224.167 206.833,226.833 204.5,229.5C 203.833,230.167 203.167,230.833 202.5,231.5C 202.167,231.5 201.833,231.5 201.5,231.5C 177.722,235.296 163.055,225.63 157.5,202.5 Z"/></g>
<g><path style="opacity:1" fill="#e4de28" d="M 201.5,231.5 C 201.833,231.5 202.167,231.5 202.5,231.5C 203.873,231.343 205.207,231.51 206.5,232C 205.833,232.333 205.167,232.667 204.5,233C 207.167,233.667 207.167,234.333 204.5,235C 206.5,235.333 208.5,235.667 210.5,236C 209.833,236.333 209.167,236.667 208.5,237C 211.167,237.667 211.167,238.333 208.5,239C 210.5,239.333 212.5,239.667 214.5,240C 213.833,240.333 213.167,240.667 212.5,241C 215.167,241.667 215.167,242.333 212.5,243C 214.5,243.333 216.5,243.667 218.5,244C 217.833,244.333 217.167,244.667 216.5,245C 219.167,245.667 219.167,246.333 216.5,247C 218.5,247.333 220.5,247.667 222.5,248C 221.833,248.333 221.167,248.667 220.5,249C 223.167,249.667 223.167,250.333 220.5,251C 222.5,251.333 224.5,251.667 226.5,252C 225.833,252.333 225.167,252.667 224.5,253C 227.167,253.667 227.167,254.333 224.5,255C 226.5,255.333 228.5,255.667 230.5,256C 229.833,256.333 229.167,256.667 228.5,257C 231.167,257.667 231.167,258.333 228.5,259C 230.5,259.333 232.5,259.667 234.5,260C 233.833,260.333 233.167,260.667 232.5,261C 235.167,261.667 235.167,262.333 232.5,263C 234.5,263.333 236.5,263.667 238.5,264C 237.833,264.333 237.167,264.667 236.5,265C 239.167,265.667 239.167,266.333 236.5,267C 238.5,267.333 240.5,267.667 242.5,268C 241.833,268.333 241.167,268.667 240.5,269C 243.167,269.667 243.167,270.333 240.5,271C 242.5,271.333 244.5,271.667 246.5,272C 245.833,272.333 245.167,272.667 244.5,273C 247.167,273.667 247.167,274.333 244.5,275C 246.5,275.333 248.5,275.667 250.5,276C 249.833,276.333 249.167,276.667 248.5,277C 251.167,277.667 251.167,278.333 248.5,279C 250.5,279.333 252.5,279.667 254.5,280C 253.833,280.333 253.167,280.667 252.5,281C 255.167,281.667 255.167,282.333 252.5,283C 254.5,283.333 256.5,283.667 258.5,284C 257.833,284.333 257.167,284.667 256.5,285C 259.167,285.667 259.167,286.333 256.5,287C 258.5,287.333 260.5,287.667 262.5,288C 261.833,288.333 261.167,288.667 260.5,289C 263.167,289.667 263.167,290.333 260.5,291C 262.5,291.333 264.5,291.667 266.5,292C 265.833,292.333 265.167,292.667 264.5,293C 265.416,293.278 266.082,293.778 266.5,294.5C 224.165,294.667 181.832,294.5 139.5,294C 140.056,293.617 140.389,293.117 140.5,292.5C 161.167,272.5 181.5,252.167 201.5,231.5 Z"/></g>
<g><path style="opacity:1" fill="#7f7e24" d="M -0.5,284.5 C 1.24337,289.908 4.91003,293.242 10.5,294.5C 52.6647,295.333 94.998,295.833 137.5,296C 136.29,297.039 135.29,298.206 134.5,299.5C 92.8333,299.5 51.1667,299.5 9.5,299.5C 5.29934,297.971 1.966,295.304 -0.5,291.5C -0.5,289.167 -0.5,286.833 -0.5,284.5 Z"/></g>
<g><path style="opacity:1" fill="#9b9a2c" d="M 299.5,284.5 C 299.5,286.5 299.5,288.5 299.5,290.5C 297.413,294.922 294.08,297.922 289.5,299.5C 237.833,299.5 186.167,299.5 134.5,299.5C 135.29,298.206 136.29,297.039 137.5,296C 94.998,295.833 52.6647,295.333 10.5,294.5C 103.334,295.267 196,295.267 288.5,294.5C 294.09,293.242 297.757,289.908 299.5,284.5 Z"/></g>
</svg>
